<svg xmlns="http://www.w3.org/2000/svg" version="1.1" xmlns:xlink="http://www.w3.org/1999/xlink" xmlns:svgjs="http://svgjs.com/svgjs" preserveAspectRatio="xMidYMid meet" viewBox="0 0 400 525.9375"><circle r="0.5" cx="400.5" cy="0.5"></circle><circle r="0.5" cx="0.5" cy="0.5"></circle><text fill="#000000" x="201.375" y="-1.515625" font-family="Arial, &quot;Helvetica Neue&quot;, Helvetica, sans-serif" font-size="48" text-anchor="middle"><tspan dy="62.400000000000006" x="201.375">F# minor</tspan></text><line x1="65.6" y1="80.771875" x2="94.39999999999999" y2="109.57187499999999" stroke-width="2" stroke="#000000"></line><line x1="65.6" y1="109.57187499999999" x2="94.39999999999999" y2="80.771875" stroke-width="2" stroke="#000000"></line><line x1="79" y1="120.171875" x2="321" y2="120.171875" stroke-width="2" stroke="#000000"></line><text x="340.6" y="114.65625" font-family="Arial, &quot;Helvetica Neue&quot;, Helvetica, sans-serif" font-size="38" text-anchor="start" fill="#000000"><tspan dy="49.4" x="340.6">9fr</tspan></text><line x1="80" y1="205.171875" x2="320" y2="205.171875" stroke-width="2" stroke="#000000"></line><line x1="80" y1="289.171875" x2="320" y2="289.171875" stroke-width="2" stroke="#000000"></line><line x1="80" y1="373.171875" x2="320" y2="373.171875" stroke-width="2" stroke="#000000"></line><line x1="80" y1="457.171875" x2="320" y2="457.171875" stroke-width="2" stroke="#000000"></line><line x1="80" y1="121.171875" x2="80" y2="457.171875" stroke-width="2" stroke="#000000"></line><line x1="128" y1="121.171875" x2="128" y2="457.171875" stroke-width="2" stroke="#000000"></line><line x1="176" y1="121.171875" x2="176" y2="457.171875" stroke-width="2" stroke="#000000"></line><line x1="224" y1="121.171875" x2="224" y2="457.171875" stroke-width="2" stroke="#000000"></line><line x1="272" y1="121.171875" x2="272" y2="457.171875" stroke-width="2" stroke="#000000"></line><line x1="320" y1="121.171875" x2="320" y2="457.171875" stroke-width="2" stroke="#000000"></line><circle r="15.600000000000001" cx="320" cy="247.171875" fill="#000000"></circle><circle r="15.600000000000001" cx="224" cy="331.171875" fill="#000000"></circle><circle r="15.600000000000001" cx="272" cy="331.171875" fill="#000000"></circle><rect width="216" height="31.200000000000003" x="116" y="147.571875" fill="#000000" rx="7.800000000000001" ry="7.800000000000001"></rect><text x="80" y="473.971875" font-family="Arial, &quot;Helvetica Neue&quot;, Helvetica, sans-serif" text-anchor="middle" fill="#000000"><tspan dy="31.200000000000003" x="80"></tspan></text><text x="128.6875" y="467.45625" font-family="Arial, &quot;Helvetica Neue&quot;, Helvetica, sans-serif" text-anchor="middle" fill="#000000"><tspan dy="31.200000000000003" x="128.6875">1</tspan></text><text x="176" y="467.45625" font-family="Arial, &quot;Helvetica Neue&quot;, Helvetica, sans-serif" text-anchor="middle" fill="#000000"><tspan dy="31.200000000000003" x="176">3</tspan></text><text x="224" y="467.45625" font-family="Arial, &quot;Helvetica Neue&quot;, Helvetica, sans-serif" text-anchor="middle" fill="#000000"><tspan dy="31.200000000000003" x="224">4</tspan></text><text x="272.6875" y="467.45625" font-family="Arial, &quot;Helvetica Neue&quot;, Helvetica, sans-serif" text-anchor="middle" fill="#000000"><tspan dy="31.200000000000003" x="272.6875">2</tspan></text><text x="320.6875" y="467.45625" font-family="Arial, &quot;Helvetica Neue&quot;, Helvetica, sans-serif" text-anchor="middle" fill="#000000"><tspan dy="31.200000000000003" x="320.6875">1</tspan></text></svg>